<mxfile host="Electron" modified="2023-11-27T21:14:14.148Z" agent="Mozilla/5.0 (Windows NT 10.0; Win64; x64) AppleWebKit/537.36 (KHTML, like Gecko) draw.io/22.0.2 Chrome/114.0.5735.289 Electron/25.8.4 Safari/537.36" etag="KMyHaGoyqdOXu1MHGYQ9" version="22.0.2" type="device">
  <diagram name="第 1 页" id="HokrTxTyp_t6bdZjUJ61">
    <mxGraphModel dx="957" dy="482" grid="1" gridSize="10" guides="1" tooltips="1" connect="1" arrows="1" fold="1" page="1" pageScale="1" pageWidth="2500" pageHeight="2500" math="0" shadow="0">
      <root>
        <mxCell id="0" />
        <mxCell id="1" parent="0" />
        <mxCell id="aC7ST5yYlNQZjI4ct9v0-1" value="device" style="swimlane;fontStyle=0;childLayout=stackLayout;horizontal=1;startSize=26;fillColor=none;horizontalStack=0;resizeParent=1;resizeParentMax=0;resizeLast=0;collapsible=1;marginBottom=0;whiteSpace=wrap;html=1;" vertex="1" parent="1">
          <mxGeometry x="110" y="80" width="140" height="78" as="geometry" />
        </mxCell>
        <mxCell id="aC7ST5yYlNQZjI4ct9v0-2" value="audio/visual prompt" style="text;strokeColor=none;fillColor=none;align=left;verticalAlign=top;spacingLeft=4;spacingRight=4;overflow=hidden;rotatable=0;points=[[0,0.5],[1,0.5]];portConstraint=eastwest;whiteSpace=wrap;html=1;" vertex="1" parent="aC7ST5yYlNQZjI4ct9v0-1">
          <mxGeometry y="26" width="140" height="26" as="geometry" />
        </mxCell>
        <mxCell id="aC7ST5yYlNQZjI4ct9v0-4" value="getter: isShockable" style="text;strokeColor=none;fillColor=none;align=left;verticalAlign=top;spacingLeft=4;spacingRight=4;overflow=hidden;rotatable=0;points=[[0,0.5],[1,0.5]];portConstraint=eastwest;whiteSpace=wrap;html=1;" vertex="1" parent="aC7ST5yYlNQZjI4ct9v0-1">
          <mxGeometry y="52" width="140" height="26" as="geometry" />
        </mxCell>
        <mxCell id="aC7ST5yYlNQZjI4ct9v0-5" value="GUI(mainWindow.ui)" style="swimlane;fontStyle=0;childLayout=stackLayout;horizontal=1;startSize=26;fillColor=none;horizontalStack=0;resizeParent=1;resizeParentMax=0;resizeLast=0;collapsible=1;marginBottom=0;whiteSpace=wrap;html=1;" vertex="1" parent="1">
          <mxGeometry x="380" y="80" width="140" height="104" as="geometry" />
        </mxCell>
        <mxCell id="aC7ST5yYlNQZjI4ct9v0-6" value="Qcuston" style="text;strokeColor=none;fillColor=none;align=left;verticalAlign=top;spacingLeft=4;spacingRight=4;overflow=hidden;rotatable=0;points=[[0,0.5],[1,0.5]];portConstraint=eastwest;whiteSpace=wrap;html=1;" vertex="1" parent="aC7ST5yYlNQZjI4ct9v0-5">
          <mxGeometry y="26" width="140" height="26" as="geometry" />
        </mxCell>
        <mxCell id="aC7ST5yYlNQZjI4ct9v0-7" value="buttons" style="text;strokeColor=none;fillColor=none;align=left;verticalAlign=top;spacingLeft=4;spacingRight=4;overflow=hidden;rotatable=0;points=[[0,0.5],[1,0.5]];portConstraint=eastwest;whiteSpace=wrap;html=1;" vertex="1" parent="aC7ST5yYlNQZjI4ct9v0-5">
          <mxGeometry y="52" width="140" height="26" as="geometry" />
        </mxCell>
        <mxCell id="aC7ST5yYlNQZjI4ct9v0-8" value="+ field: type" style="text;strokeColor=none;fillColor=none;align=left;verticalAlign=top;spacingLeft=4;spacingRight=4;overflow=hidden;rotatable=0;points=[[0,0.5],[1,0.5]];portConstraint=eastwest;whiteSpace=wrap;html=1;" vertex="1" parent="aC7ST5yYlNQZjI4ct9v0-5">
          <mxGeometry y="78" width="140" height="26" as="geometry" />
        </mxCell>
        <mxCell id="aC7ST5yYlNQZjI4ct9v0-13" value="heart rhythm detector" style="swimlane;fontStyle=0;childLayout=stackLayout;horizontal=1;startSize=26;fillColor=none;horizontalStack=0;resizeParent=1;resizeParentMax=0;resizeLast=0;collapsible=1;marginBottom=0;whiteSpace=wrap;html=1;" vertex="1" parent="1">
          <mxGeometry x="390" y="410" width="140" height="104" as="geometry" />
        </mxCell>
        <mxCell id="aC7ST5yYlNQZjI4ct9v0-14" value="bool: shockable" style="text;strokeColor=none;fillColor=none;align=left;verticalAlign=top;spacingLeft=4;spacingRight=4;overflow=hidden;rotatable=0;points=[[0,0.5],[1,0.5]];portConstraint=eastwest;whiteSpace=wrap;html=1;" vertex="1" parent="aC7ST5yYlNQZjI4ct9v0-13">
          <mxGeometry y="26" width="140" height="26" as="geometry" />
        </mxCell>
        <mxCell id="aC7ST5yYlNQZjI4ct9v0-15" value="function: detect" style="text;strokeColor=none;fillColor=none;align=left;verticalAlign=top;spacingLeft=4;spacingRight=4;overflow=hidden;rotatable=0;points=[[0,0.5],[1,0.5]];portConstraint=eastwest;whiteSpace=wrap;html=1;" vertex="1" parent="aC7ST5yYlNQZjI4ct9v0-13">
          <mxGeometry y="52" width="140" height="26" as="geometry" />
        </mxCell>
        <mxCell id="aC7ST5yYlNQZjI4ct9v0-16" value="+ field: type" style="text;strokeColor=none;fillColor=none;align=left;verticalAlign=top;spacingLeft=4;spacingRight=4;overflow=hidden;rotatable=0;points=[[0,0.5],[1,0.5]];portConstraint=eastwest;whiteSpace=wrap;html=1;" vertex="1" parent="aC7ST5yYlNQZjI4ct9v0-13">
          <mxGeometry y="78" width="140" height="26" as="geometry" />
        </mxCell>
        <mxCell id="aC7ST5yYlNQZjI4ct9v0-17" value="CPR feedback" style="swimlane;fontStyle=0;childLayout=stackLayout;horizontal=1;startSize=26;fillColor=none;horizontalStack=0;resizeParent=1;resizeParentMax=0;resizeLast=0;collapsible=1;marginBottom=0;whiteSpace=wrap;html=1;" vertex="1" parent="1">
          <mxGeometry x="120" y="410" width="140" height="104" as="geometry" />
        </mxCell>
        <mxCell id="aC7ST5yYlNQZjI4ct9v0-18" value="bool: goodCPR" style="text;strokeColor=none;fillColor=none;align=left;verticalAlign=top;spacingLeft=4;spacingRight=4;overflow=hidden;rotatable=0;points=[[0,0.5],[1,0.5]];portConstraint=eastwest;whiteSpace=wrap;html=1;" vertex="1" parent="aC7ST5yYlNQZjI4ct9v0-17">
          <mxGeometry y="26" width="140" height="26" as="geometry" />
        </mxCell>
        <mxCell id="aC7ST5yYlNQZjI4ct9v0-19" value="+ field: type" style="text;strokeColor=none;fillColor=none;align=left;verticalAlign=top;spacingLeft=4;spacingRight=4;overflow=hidden;rotatable=0;points=[[0,0.5],[1,0.5]];portConstraint=eastwest;whiteSpace=wrap;html=1;" vertex="1" parent="aC7ST5yYlNQZjI4ct9v0-17">
          <mxGeometry y="52" width="140" height="26" as="geometry" />
        </mxCell>
        <mxCell id="aC7ST5yYlNQZjI4ct9v0-20" value="+ field: type" style="text;strokeColor=none;fillColor=none;align=left;verticalAlign=top;spacingLeft=4;spacingRight=4;overflow=hidden;rotatable=0;points=[[0,0.5],[1,0.5]];portConstraint=eastwest;whiteSpace=wrap;html=1;" vertex="1" parent="aC7ST5yYlNQZjI4ct9v0-17">
          <mxGeometry y="78" width="140" height="26" as="geometry" />
        </mxCell>
        <mxCell id="aC7ST5yYlNQZjI4ct9v0-22" style="edgeStyle=orthogonalEdgeStyle;rounded=0;orthogonalLoop=1;jettySize=auto;html=1;entryX=0;entryY=0.5;entryDx=0;entryDy=0;" edge="1" parent="1" source="aC7ST5yYlNQZjI4ct9v0-2" target="aC7ST5yYlNQZjI4ct9v0-6">
          <mxGeometry relative="1" as="geometry" />
        </mxCell>
        <mxCell id="aC7ST5yYlNQZjI4ct9v0-27" value="bool: on/off" style="html=1;whiteSpace=wrap;" vertex="1" parent="1">
          <mxGeometry x="110" y="158" width="140" height="32" as="geometry" />
        </mxCell>
        <mxCell id="aC7ST5yYlNQZjI4ct9v0-28" value="function: self-testing sequence" style="html=1;whiteSpace=wrap;" vertex="1" parent="1">
          <mxGeometry x="110" y="190" width="140" height="30" as="geometry" />
        </mxCell>
        <mxCell id="aC7ST5yYlNQZjI4ct9v0-29" value="function: workflow" style="html=1;whiteSpace=wrap;" vertex="1" parent="1">
          <mxGeometry x="110" y="220" width="140" height="30" as="geometry" />
        </mxCell>
        <mxCell id="aC7ST5yYlNQZjI4ct9v0-31" value="user interaction(mainWindow.cpp)" style="swimlane;fontStyle=0;childLayout=stackLayout;horizontal=1;startSize=26;fillColor=none;horizontalStack=0;resizeParent=1;resizeParentMax=0;resizeLast=0;collapsible=1;marginBottom=0;whiteSpace=wrap;html=1;" vertex="1" parent="1">
          <mxGeometry x="620" y="80" width="220" height="104" as="geometry" />
        </mxCell>
        <mxCell id="aC7ST5yYlNQZjI4ct9v0-32" value="signal: good/bad electrode placement" style="text;strokeColor=none;fillColor=none;align=left;verticalAlign=top;spacingLeft=4;spacingRight=4;overflow=hidden;rotatable=0;points=[[0,0.5],[1,0.5]];portConstraint=eastwest;whiteSpace=wrap;html=1;" vertex="1" parent="aC7ST5yYlNQZjI4ct9v0-31">
          <mxGeometry y="26" width="220" height="26" as="geometry" />
        </mxCell>
        <mxCell id="aC7ST5yYlNQZjI4ct9v0-33" value="signal: good/bad CPR" style="text;strokeColor=none;fillColor=none;align=left;verticalAlign=top;spacingLeft=4;spacingRight=4;overflow=hidden;rotatable=0;points=[[0,0.5],[1,0.5]];portConstraint=eastwest;whiteSpace=wrap;html=1;" vertex="1" parent="aC7ST5yYlNQZjI4ct9v0-31">
          <mxGeometry y="52" width="220" height="26" as="geometry" />
        </mxCell>
        <mxCell id="aC7ST5yYlNQZjI4ct9v0-34" value="signal: on" style="text;strokeColor=none;fillColor=none;align=left;verticalAlign=top;spacingLeft=4;spacingRight=4;overflow=hidden;rotatable=0;points=[[0,0.5],[1,0.5]];portConstraint=eastwest;whiteSpace=wrap;html=1;" vertex="1" parent="aC7ST5yYlNQZjI4ct9v0-31">
          <mxGeometry y="78" width="220" height="26" as="geometry" />
        </mxCell>
        <mxCell id="aC7ST5yYlNQZjI4ct9v0-35" value="patient" style="swimlane;fontStyle=0;childLayout=stackLayout;horizontal=1;startSize=26;fillColor=none;horizontalStack=0;resizeParent=1;resizeParentMax=0;resizeLast=0;collapsible=1;marginBottom=0;whiteSpace=wrap;html=1;" vertex="1" parent="1">
          <mxGeometry x="630" y="410" width="140" height="104" as="geometry" />
        </mxCell>
        <mxCell id="aC7ST5yYlNQZjI4ct9v0-36" value="ventricular fibrillation" style="text;strokeColor=none;fillColor=none;align=left;verticalAlign=top;spacingLeft=4;spacingRight=4;overflow=hidden;rotatable=0;points=[[0,0.5],[1,0.5]];portConstraint=eastwest;whiteSpace=wrap;html=1;" vertex="1" parent="aC7ST5yYlNQZjI4ct9v0-35">
          <mxGeometry y="26" width="140" height="26" as="geometry" />
        </mxCell>
        <mxCell id="aC7ST5yYlNQZjI4ct9v0-37" value="ventricular tachycardia" style="text;strokeColor=none;fillColor=none;align=left;verticalAlign=top;spacingLeft=4;spacingRight=4;overflow=hidden;rotatable=0;points=[[0,0.5],[1,0.5]];portConstraint=eastwest;whiteSpace=wrap;html=1;" vertex="1" parent="aC7ST5yYlNQZjI4ct9v0-35">
          <mxGeometry y="52" width="140" height="26" as="geometry" />
        </mxCell>
        <mxCell id="aC7ST5yYlNQZjI4ct9v0-38" value="+ field: type" style="text;strokeColor=none;fillColor=none;align=left;verticalAlign=top;spacingLeft=4;spacingRight=4;overflow=hidden;rotatable=0;points=[[0,0.5],[1,0.5]];portConstraint=eastwest;whiteSpace=wrap;html=1;" vertex="1" parent="aC7ST5yYlNQZjI4ct9v0-35">
          <mxGeometry y="78" width="140" height="26" as="geometry" />
        </mxCell>
        <mxCell id="aC7ST5yYlNQZjI4ct9v0-39" style="edgeStyle=orthogonalEdgeStyle;rounded=0;orthogonalLoop=1;jettySize=auto;html=1;entryX=1.001;entryY=0.137;entryDx=0;entryDy=0;entryPerimeter=0;exitX=1;exitY=0.5;exitDx=0;exitDy=0;" edge="1" parent="1" source="aC7ST5yYlNQZjI4ct9v0-33" target="aC7ST5yYlNQZjI4ct9v0-17">
          <mxGeometry relative="1" as="geometry">
            <Array as="points">
              <mxPoint x="900" y="145" />
              <mxPoint x="900" y="560" />
              <mxPoint x="310" y="560" />
              <mxPoint x="310" y="424" />
            </Array>
          </mxGeometry>
        </mxCell>
        <mxCell id="aC7ST5yYlNQZjI4ct9v0-40" style="edgeStyle=orthogonalEdgeStyle;rounded=0;orthogonalLoop=1;jettySize=auto;html=1;entryX=0.5;entryY=0;entryDx=0;entryDy=0;exitX=0;exitY=0.5;exitDx=0;exitDy=0;" edge="1" parent="1" source="aC7ST5yYlNQZjI4ct9v0-32" target="aC7ST5yYlNQZjI4ct9v0-1">
          <mxGeometry relative="1" as="geometry">
            <Array as="points">
              <mxPoint x="600" y="119" />
              <mxPoint x="600" y="60" />
              <mxPoint x="180" y="60" />
            </Array>
          </mxGeometry>
        </mxCell>
        <mxCell id="aC7ST5yYlNQZjI4ct9v0-41" style="edgeStyle=orthogonalEdgeStyle;rounded=0;orthogonalLoop=1;jettySize=auto;html=1;" edge="1" parent="1" source="aC7ST5yYlNQZjI4ct9v0-7" target="aC7ST5yYlNQZjI4ct9v0-32">
          <mxGeometry relative="1" as="geometry" />
        </mxCell>
        <mxCell id="aC7ST5yYlNQZjI4ct9v0-42" style="edgeStyle=orthogonalEdgeStyle;rounded=0;orthogonalLoop=1;jettySize=auto;html=1;entryX=0;entryY=0.096;entryDx=0;entryDy=0;entryPerimeter=0;" edge="1" parent="1" source="aC7ST5yYlNQZjI4ct9v0-15" target="aC7ST5yYlNQZjI4ct9v0-35">
          <mxGeometry relative="1" as="geometry" />
        </mxCell>
        <mxCell id="aC7ST5yYlNQZjI4ct9v0-43" style="edgeStyle=orthogonalEdgeStyle;rounded=0;orthogonalLoop=1;jettySize=auto;html=1;entryX=0;entryY=0.5;entryDx=0;entryDy=0;" edge="1" parent="1" source="aC7ST5yYlNQZjI4ct9v0-4" target="aC7ST5yYlNQZjI4ct9v0-14">
          <mxGeometry relative="1" as="geometry" />
        </mxCell>
        <mxCell id="aC7ST5yYlNQZjI4ct9v0-45" value="workflow:&lt;br&gt;selftesting-&amp;gt;wait for signals-&amp;gt;good elevctrode placement-&amp;gt; isShockable()-&amp;gt;deliver shock()" style="text;html=1;align=center;verticalAlign=middle;resizable=0;points=[];autosize=1;strokeColor=none;fillColor=none;" vertex="1" parent="1">
          <mxGeometry x="340" y="210" width="500" height="40" as="geometry" />
        </mxCell>
        <mxCell id="aC7ST5yYlNQZjI4ct9v0-47" style="edgeStyle=orthogonalEdgeStyle;rounded=0;orthogonalLoop=1;jettySize=auto;html=1;entryX=0.25;entryY=0;entryDx=0;entryDy=0;" edge="1" parent="1" source="aC7ST5yYlNQZjI4ct9v0-46" target="aC7ST5yYlNQZjI4ct9v0-35">
          <mxGeometry relative="1" as="geometry">
            <Array as="points">
              <mxPoint x="180" y="350" />
              <mxPoint x="665" y="350" />
            </Array>
          </mxGeometry>
        </mxCell>
        <mxCell id="aC7ST5yYlNQZjI4ct9v0-46" value="function:diliver shock()" style="whiteSpace=wrap;html=1;" vertex="1" parent="1">
          <mxGeometry x="110" y="250" width="140" height="40" as="geometry" />
        </mxCell>
        <mxCell id="aC7ST5yYlNQZjI4ct9v0-48" value="update status" style="text;html=1;align=center;verticalAlign=middle;resizable=0;points=[];autosize=1;strokeColor=none;fillColor=none;" vertex="1" parent="1">
          <mxGeometry x="370" y="328" width="100" height="30" as="geometry" />
        </mxCell>
        <mxCell id="aC7ST5yYlNQZjI4ct9v0-49" value="wair for signal:CPR status-&amp;gt; isGoodCPR()-&amp;gt;termination" style="text;html=1;align=center;verticalAlign=middle;resizable=0;points=[];autosize=1;strokeColor=none;fillColor=none;" vertex="1" parent="1">
          <mxGeometry x="415" y="250" width="320" height="30" as="geometry" />
        </mxCell>
        <mxCell id="aC7ST5yYlNQZjI4ct9v0-51" value="if (isShockable()==Flase) inform, performCPR,termination" style="text;html=1;align=center;verticalAlign=middle;resizable=0;points=[];autosize=1;strokeColor=none;fillColor=none;" vertex="1" parent="1">
          <mxGeometry x="380" y="278" width="330" height="30" as="geometry" />
        </mxCell>
      </root>
    </mxGraphModel>
  </diagram>
</mxfile>
